<svg width="720" height="720" xmlns="http://www.w3.org/2000/svg" xmlns:xlink="http://www.w3.org/1999/xlink" xml:space="preserve" overflow="hidden"><g transform="translate(-280 0)"><path d="M813.693 132.442C814.345 132.278 814.802 131.686 814.896 131.021L816.104 122.32C816.104 122.32 815.4 120.55 813.15 120.55 810.9 120.55 810.453 122.32 810.453 122.32L811.671 131.094C811.801 132.031 812.713 132.688 813.693 132.442Z" fill="#D2D2D2"/><path d="M786.726 132.442C787.379 132.278 787.836 131.686 787.929 131.021L789.137 122.32C789.137 122.32 788.451 120.299 786.35 120.299 784.25 120.299 783.486 122.32 783.486 122.32L784.705 131.094C784.834 132.031 785.746 132.688 786.726 132.442Z" fill="#D2D2D2"/><path d="M786.27 143.825C785.625 143.986 785.173 144.57 785.082 145.229L783.888 153.821C783.888 153.821 784.4 155.85 786.7 155.85 789 155.85 789.47 153.821 789.47 153.821L788.266 145.157C788.138 144.231 787.237 143.582 786.27 143.825Z" fill="#D2D2D2"/><path d="M812.903 143.825C812.258 143.986 811.806 144.57 811.715 145.229L810.521 153.821C810.521 153.821 811.4 155.35 813.35 155.35 815.3 155.35 816.103 153.821 816.103 153.821L814.899 145.157C814.772 144.231 813.871 143.582 812.903 143.825Z" fill="#D2D2D2"/><path d="M807.072 132.442C807.725 132.278 808.182 131.686 808.275 131.021L809.484 122.32C809.484 122.32 808.751 120.25 806.7 120.25 804.65 120.25 803.832 122.32 803.832 122.32L805.05 131.094C805.18 132.031 806.092 132.688 807.072 132.442Z" fill="#D2D2D2"/><path d="M806.364 143.825C805.72 143.986 805.268 144.57 805.176 145.229L803.983 153.821C803.983 153.821 804.45 155.6 806.7 155.6 808.95 155.6 809.565 153.821 809.565 153.821L808.362 145.157C808.232 144.231 807.332 143.582 806.364 143.825Z" fill="#D2D2D2"/><path d="M799.255 132.442C799.908 132.278 800.365 131.686 800.458 131.021L801.666 122.32C801.666 122.32 801.051 120.2 798.951 120.2 796.85 120.2 796.015 122.32 796.015 122.32L797.234 131.094C797.363 132.031 798.275 132.688 799.255 132.442Z" fill="#D2D2D2"/><path d="M798.644 143.825C798 143.986 797.547 144.57 797.456 145.229L796.262 153.821C796.262 153.821 796.85 155.75 799.05 155.75 801.25 155.75 801.845 153.821 801.845 153.821L800.641 145.157C800.512 144.231 799.611 143.582 798.644 143.825Z" fill="#D2D2D2"/><path d="M713.549 203.348 713.548 203.332C716.613 203.142 718.988 200.551 718.882 197.463 718.776 194.376 716.228 191.954 713.158 191.975L713.157 191.959C716.222 191.769 718.597 189.178 718.491 186.09 718.385 183.002 715.837 180.581 712.767 180.602 712.767 180.602 712.504 180.609 712.451 180.612 693.759 181.425 679.176 197.148 679.819 215.886 679.819 215.886 680.09 228.385 668.33 228.789L623.233 230.65 623.233 230.65C623.333 242.618 633.343 252.115 645.3 251.586L680.991 250.007C699.835 249.359 714.587 233.558 713.939 214.714L713.939 214.714 713.939 214.705C717.003 214.516 719.379 211.924 719.273 208.837 719.167 205.749 716.619 203.326 713.549 203.348Z" fill="#D2D2D2"/><path d="M695.054 216.049C695.682 216.028 696.174 215.501 696.152 214.873 695.747 203.114 704.985 193.219 716.745 192.814 717.372 192.793 717.864 192.266 717.842 191.638 717.821 191.01 717.294 190.518 716.666 190.54 703.694 190.985 693.389 200.739 693.877 214.951 693.899 215.58 694.426 216.071 695.054 216.049Z" fill="#FFFFFF"/><path d="M705.991 215.674C706.619 215.653 707.111 215.126 707.089 214.498 706.997 211.84 707.947 209.306 709.762 207.361 711.577 205.418 714.04 204.296 716.698 204.205 716.699 204.205 716.699 204.205 716.699 204.205 717.326 204.184 717.818 203.657 717.797 203.029 717.775 202.401 717.248 201.909 716.62 201.931L716.619 201.931C713.353 202.043 710.328 203.42 708.098 205.808 705.867 208.197 704.701 211.311 704.814 214.576 704.836 215.204 705.363 215.696 705.991 215.674Z" fill="#FFFFFF"/><path d="M819.226 397.164C819.221 393.965 813.4 390.991 813.146 387.79 812.892 384.602 818.172 380.744 817.667 377.571 817.166 374.415 810.952 372.386 810.198 369.261 809.45 366.157 814.057 361.517 813.056 358.459 812.064 355.427 805.607 354.408 804.364 351.436 803.134 348.496 806.927 343.151 805.448 340.285 803.715 337.115 796.979 337.027 794.996 334.12 792.97 331.15 795.363 324.88 793.098 322.164 790.805 319.414 784.193 320.635 781.681 318.126 779.157 315.605 780.383 309.007 777.664 306.707 774.947 304.41 768.622 306.702 765.734 304.604 762.859 302.516 763.106 295.807 760.087 293.895 757.087 291.995 751.104 295.074 747.985 293.329 744.885 291.593 744.407 284.894 741.215 283.29 738.039 281.694 732.355 285.297 729.11 283.811 725.873 282.329 724.911 275.681 721.63 274.288 718.348 272.894 712.586 276.967 709.283 275.643 709.283 275.643 705.344 274.037 702.486 272.899 689.402 267.685 676.266 262.922 663.807 257.991 635.046 248.44 611.397 223.839 612.591 192.15 614.241 161.771 630.542 117.113 691.548 121.273L680.95 94.95C598.108 94.95 568.15 147.07 568.15 195.15 568.15 240.322 620.009 284.029 678.55 292.95 691.326 294.897 701.174 301.383 709.15 311.55 720.33 325.799 738.17 337.915 756.55 346.35 770.613 352.804 771.434 360.825 767.35 375.75 765.443 382.721 765.55 391.73 765.55 399.15 765.55 405.146 765.49 412.639 766.75 418.35 769.07 428.867 766.252 436.691 760.75 445.95 752.948 459.078 750.184 467.939 752.95 483.15 754.15 489.75 757.65 493.55 759.648 495.805 769.182 489.159 777.432 481.198 784.328 472.297 788.464 472.046 794.217 472.65 795.519 470.869 797.414 468.277 794.464 462.443 796.134 459.712 797.808 456.976 804.344 456.947 805.789 454.088 807.235 451.227 803.381 445.945 804.594 442.979 805.805 440.012 812.255 438.944 813.23 435.89 814.205 432.839 809.57 428.228 810.304 425.106 811.037 421.989 817.243 419.93 817.733 416.759 818.222 413.596 812.93 409.757 813.174 406.558 813.417 403.367 819.231 400.374 819.226 397.164Z" fill="#737373"/><path d="M614.889 609.155C644.101 613.682 673.099 618.721 702.565 603.889 735.729 590.039 751.516 559.757 756.095 525.482 756.778 520.996 757.245 516.372 757.5 511.646 753.25 512.4 749.24 515.786 748.15 519.45 747.508 521.608 746.332 524.776 746.05 526.95 745.367 532.202 745.086 534.629 740.35 537 740.177 537.087 737.063 539.143 736.9 539.25 723.4 548.1 716.858 560.362 715.9 576.3 715.529 582.466 710.837 587.504 704.718 588.356L702.85 588.3C689.893 590.114 681.676 593.609 673.223 600.113 670.373 602.305 667.318 601.684 664 600.3 657.561 597.614 650.408 596.55 642.85 596.55 632.138 596.55 614.05 599.4 614.889 609.155Z" fill="#737373"/><path d="M691.95 494.35C685.075 498.458 679.34 498.209 671.55 496.35 667.841 495.464 660.56 494.621 656.55 494.75 648.342 495.014 638.35 498.35 637.968 506.892 665.812 519.79 698.887 521.953 728 512 733.949 507.95 732.945 493.853 732.15 487.75 729.336 487.06 719.743 485.66 716.75 485.551 707.967 485.231 698.92 490.184 691.95 494.35Z" fill="#737373"/><path d="M731.444 122.321 816.104 122.321 816.104 104.165C816.104 96.09 809.498 89.484 801.423 89.484L780.66 89.484C780.658 89.4848 780.656 89.4855 780.655 89.4863L773.442 96.8633C773.442 96.8633 767.151 98.85 755.951 97.95 746.555 97.1947 739.704 93.8272 733.451 88.05L733.451 88.05C724.165 79.4715 712.193 76.2503 699.551 76.2503L676.674 75.0683C664.518 73.9785 652.226 74.6888 640.299 77.13 632.415 78.7432 624.249 78.294 616.553 75.9405L604.154 72.1485C602.289 71.8913 601.441 74.3985 603.079 75.327L609.869 82.8428C611.885 84.726 611.636 86.0303 610.882 86.8635 610.07 87.7605 608.768 88.0327 607.604 87.7012L548.289 70.8262C546.683 70.3695 545.64 72.48 546.978 73.4782L581.444 99.1785C583.958 101.054 584.08 104.778 581.694 106.813L581.594 106.898C580.203 108.085 578.265 108.397 576.571 107.707L532.607 89.7787C531.088 89.3317 529.999 91.2337 531.152 92.3175L563.573 122.773C564.964 124.079 565.193 126.205 564.114 127.778L564.072 127.839C563.016 129.376 561.018 129.94 559.313 129.185 551.318 125.645 541.162 120.443 540.03 122.055 538.781 123.833 548.48 132.63 554.572 139.084 555.598 140.171 555.846 141.773 555.205 143.123L555.182 143.172C554.445 144.721 552.722 145.538 551.057 145.124 542.437 142.98 530.013 138.796 529.098 140.71 528.093 142.811 540.941 150.804 547.825 156.236 548.81 157.013 549.213 158.314 548.848 159.515L548.835 159.557C548.422 160.915 547.14 161.814 545.723 161.743 536.955 161.303 522.063 158.843 521.447 161.045 520.781 163.423 536.727 169.668 543.984 173.874 544.886 174.397 545.372 175.414 545.224 176.445L545.213 176.521C545.056 177.607 544.217 178.476 543.133 178.646 534.86 179.946 517.673 179.96 517.43 182.398 517.156 185.135 538.177 189.086 544.214 192.174 544.22 193.128 544.245 194.08 544.274 195.034 538.285 197.955 516.915 201.289 517.104 204.04 517.295 206.849 539.796 207.228 545.608 209.425 545.73 210.224 545.86 211.021 545.999 211.817 541.142 215.61 519.652 222.576 520.288 225.327 520.926 228.084 543.503 224.879 549.405 226.212 549.628 226.953 549.857 227.692 550.094 228.429 545.992 232.885 525.635 243.116 526.683 245.753 527.717 248.354 549.146 241.99 555.429 242.292 555.774 243.057 556.128 243.818 556.488 244.577 552.764 249.708 534.567 262.505 535.965 264.935 537.332 267.307 556.776 258.417 563.484 257.471 563.998 258.305 564.514 259.138 565.046 259.962 561.531 265.878 546.155 280.407 547.836 282.563 549.468 284.655 566.438 273.91 573.413 271.542 574.144 272.452 574.889 273.353 575.644 274.246 572.427 281.003 560.127 296.518 562.027 298.359 563.861 300.135 578.113 288.174 585.049 284.316 586.052 285.287 587.073 286.242 588.106 287.185 585.375 294.767 576.229 310.547 578.281 312.042 580.254 313.48 591.734 300.866 598.266 295.582 599.587 296.573 600.925 297.544 602.286 298.488 600.293 306.763 594.182 322.19 596.322 323.326 598.37 324.412 607.121 311.704 612.891 305.155 614.572 306.105 616.284 307.01 618.013 307.89 616.987 316.623 613.657 331.158 615.822 331.932 616.812 332.286 618.759 329.627 621.036 325.934 625.542 318.624 634.362 315.201 642.635 317.501L642.778 317.541C684.742 333.728 751.489 342.517 754.428 396.953 756.867 411.324 753.146 425.521 745.557 437.551 735.605 411.387 719.678 387.962 698.206 373.568L698.172 373.544C696.167 372.167 695.278 369.65 695.975 367.318 696.948 364.064 697.539 361.434 696.773 360.997 695.979 360.545 693.999 362.4 691.689 364.907 690.044 366.692 687.429 367.209 685.228 366.187L685.153 366.151C682.947 365.128 681.655 362.792 681.961 360.38 682.388 357.005 682.54 354.31 681.708 354.008 680.855 353.697 679.235 355.844 677.398 358.693 676.072 360.749 673.568 361.719 671.203 361.093L671.112 361.069C668.747 360.443 667.054 358.359 666.924 355.915 666.744 352.534 666.413 349.872 665.541 349.724 664.652 349.574 663.462 351.952 662.185 355.063 661.245 357.354 658.936 358.785 656.466 358.604L656.424 358.6C653.954 358.419 651.879 356.665 651.285 354.26 650.48 350.999 649.66 348.476 648.778 348.496 647.88 348.516 647.166 351.072 646.505 354.365 646.017 356.794 644.027 358.639 641.568 358.939L641.489 358.948C639.03 359.247 636.656 357.928 635.609 355.684 634.188 352.64 632.894 350.323 632.031 350.515 631.156 350.709 630.957 353.354 630.956 356.71 630.956 359.192 629.361 361.397 627.002 362.171L626.922 362.197C624.556 362.972 621.958 362.143 620.474 360.143 618.484 357.46 616.763 355.464 615.958 355.825 615.145 356.189 615.482 358.799 616.157 362.068 616.662 364.515 615.546 367.014 613.382 368.265L613.308 368.308C611.142 369.56 608.416 369.283 606.541 367.626 604.046 365.421 601.956 363.835 601.245 364.355 600.53 364.879 601.404 367.343 602.749 370.381 603.768 372.681 603.203 375.378 601.342 377.071L601.278 377.129C599.411 378.826 596.669 379.143 594.46 377.924 591.567 376.328 589.205 375.251 588.626 375.914 588.047 376.576 589.431 378.76 591.401 381.4 592.919 383.435 592.979 386.213 591.538 388.305L591.489 388.375C590.052 390.464 587.442 391.401 585.001 390.716 581.828 389.826 579.291 389.322 578.88 390.103 578.474 390.872 580.307 392.66 582.816 394.756 584.775 396.393 585.49 399.089 584.589 401.477L584.558 401.557C583.662 403.926 581.349 405.455 578.818 405.36 575.512 405.236 572.913 405.34 572.693 406.204 572.479 407.047 574.709 408.367 577.667 409.832 579.932 410.953 581.236 413.394 580.898 415.9L580.887 415.985C580.551 418.489 578.65 420.496 576.171 420.981 572.924 421.616 570.417 422.314 570.397 423.21 570.378 424.082 572.895 424.883 576.151 425.666 578.567 426.247 580.338 428.316 580.538 430.793L580.544 430.877C580.744 433.359 579.329 435.692 577.039 436.669 573.964 437.98 571.622 439.2 571.786 440.092 571.945 440.957 574.639 441.243 578.047 441.372 580.461 441.463 582.541 443.09 583.187 445.418 583.205 445.48 583.221 445.541 583.239 445.602 583.883 447.932 582.949 450.404 580.931 451.736 578.084 453.616 575.933 455.276 576.255 456.139 576.585 457.026 579.691 456.752 583.427 456.221 585.359 455.947 587.246 456.977 588.047 458.756 588.171 459.031 588.297 459.305 588.423 459.581L588.439 459.612C589.336 461.446 588.865 463.654 587.303 464.97 584.519 467.318 582.348 469.342 582.741 470.028 583.141 470.727 586.043 469.881 589.529 468.674 591.42 468.018 593.517 468.725 594.618 470.397L594.656 470.455C595.76 472.129 595.587 474.338 594.245 475.827 591.782 478.559 589.88 480.89 590.363 481.524 590.849 482.162 593.612 480.947 596.907 479.298 598.696 478.402 600.866 478.826 602.18 480.335L602.225 480.387C603.535 481.891 603.654 484.095 602.518 485.736 600.419 488.771 598.823 491.341 599.385 491.91 599.948 492.482 602.547 490.917 605.619 488.857 607.271 487.749 609.465 487.901 610.944 489.231L610.995 489.277C611.865 490.06 612.348 491.135 612.419 492.244 596.005 499.84 588.276 519.066 595.132 536.016L595.135 536.023C592.322 537.253 590.979 540.502 592.136 543.365 593.294 546.229 596.519 547.63 599.396 546.559L599.402 546.574C596.589 547.803 595.245 551.052 596.403 553.916 597.561 556.779 600.786 558.181 603.662 557.109L603.669 557.124C600.855 558.353 599.512 561.602 600.67 564.466 601.828 567.33 605.052 568.731 607.929 567.659 607.929 567.659 608.174 567.562 608.223 567.541 625.503 560.368 633.811 540.598 626.781 523.216 626.781 523.216 622.241 511.568 633.15 507.156L636.044 505.962C636.686 506.273 637.325 506.588 637.972 506.888 644.446 502.652 652.091 500.075 660.299 499.811 664.482 499.676 668.538 500.131 672.391 501.098 680.04 503.017 688.074 501.669 694.844 497.623 701.814 493.457 710.041 491.179 718.824 491.498 721.818 491.607 724.734 492.029 727.547 492.719 728.341 498.822 728.862 504.785 728.502 511.598 728.452 514.148 728.201 516.203 728.074 518.252 727.731 523.807 726.966 529.019 725.761 533.736 725.492 535.772 725.133 537.743 724.709 539.667 721.208 540.878 717.632 542.029 717.015 543.923 716.352 545.959 718.473 549.203 720.51 552.376 718.94 555.811 717.073 559.001 714.962 561.97 711.201 561.795 707.364 561.549 705.986 563.072 704.596 564.607 705.234 568.397 705.803 572.117 703.006 574.582 699.987 576.812 696.763 578.795 693.348 577.174 689.875 575.481 687.987 576.412 686.156 577.314 685.45 581.069 684.701 584.763 681.16 586.154 677.474 587.33 673.667 588.278 670.894 585.705 668.089 583.073 666.012 583.445 663.999 583.805 662.341 587.241 660.662 590.623 658.71 590.85 656.743 591.034 654.756 591.161 653.474 591.248 652.195 591.307 650.917 591.344 649.473 588.216 648.032 585.061 646.676 585.045 645.315 585.029 643.821 588.15 642.328 591.251 639.722 591.13 637.119 590.933 634.519 590.683 633.464 587.398 632.409 584.101 631.056 583.944 629.707 583.788 627.961 586.763 626.215 589.731 623.547 589.386 620.878 589.012 618.205 588.635 617.294 585.307 616.381 581.978 615.032 581.79 613.687 581.602 611.928 584.556 610.168 587.516 607.421 587.148 604.667 586.804 601.904 586.51 600.882 583.215 599.858 579.932 598.501 579.815 597.15 579.698 595.604 582.758 594.056 585.834 592.644 585.745 591.23 585.676 589.812 585.63 588.184 585.571 586.523 585.533 584.839 585.515 583.237 582.331 581.612 579.167 579.943 579.197 578.341 579.225 576.885 582.439 575.419 585.68 572.038 585.841 568.615 586.122 565.202 586.551 563.19 583.61 561.18 580.702 559.572 580.973 557.961 581.244 557.046 584.644 556.145 588.082 552.689 588.829 549.294 589.766 546.017 590.932 543.426 588.489 540.86 586.094 539.381 586.732 537.872 587.383 537.896 590.878 537.957 594.427 534.71 596.117 531.655 598.104 528.86 600.43 525.601 599.008 522.39 597.65 521.234 598.813 520.105 599.949 521.538 603.083 523.024 606.282 521.828 607.732 520.703 609.266 519.677 610.914 518.862 612.417 518.159 613.977 517.542 615.572 514.091 615.679 510.703 615.812 510.295 617.218 509.89 618.614 512.663 620.612 515.502 622.625 514.857 625.861 514.57 629.177 514.63 632.494 511.481 633.968 508.394 635.444 508.535 636.896 508.677 638.349 511.993 639.2 515.37 640.038 515.954 643.307 516.875 646.505 518.128 649.549 515.731 652.072 513.395 654.566 514.059 655.855 514.73 657.158 518.106 656.681 521.541 656.163 523.35 659.024 525.504 661.644 527.991 663.932 526.869 667.223 525.804 670.457 526.979 671.336 528.129 672.197 530.891 670.238 533.705 668.215 535.176 669.099 536.717 669.895 538.347 670.567 563.407 680.686 591.597 671.608 613.38 657.909 615.944 656.297 616.956 652.933 615.456 650.301 613.917 647.602 610.521 646.706 607.856 648.208 586.695 660.132 556.958 669.219 537.403 652.504 521.387 630.655 534.436 609.005 560.154 606.181 578.59 603.737 596.782 606.346 614.892 609.152 623.073 604.018 633.003 601.002 643.715 601.002 651.249 601.002 658.397 602.494 664.821 605.165 668.171 606.558 671.976 606.016 674.851 603.804 683.305 597.299 694.73 592.492 707.688 590.677L707.809 590.661C713.927 589.809 718.62 584.771 718.991 578.605 719.948 562.667 728.262 548.168 742.436 540.821 742.614 540.73 742.791 540.639 742.968 540.551 747.699 538.183 750.841 533.588 751.522 528.341 751.804 526.168 752.261 523.996 752.904 521.837 753.993 518.174 755.555 514.767 757.503 511.644 757.758 506.921 757.8 502.098 757.633 497.212 758.052 496.947 759.003 496.297 759.651 495.802 759.521 493.935 759.451 492.056 759.451 490.164 759.451 474.703 763.811 460.048 771.613 446.92 777.115 437.661 778.643 426.68 776.324 416.162 775.064 410.452 774.407 404.578 774.407 398.582 774.407 391.162 775.41 383.926 777.317 376.955 781.401 362.03 773.959 346.415 759.896 339.962 741.516 331.526 726.015 319.614 714.836 305.365 706.861 295.198 695.266 288.396 682.491 286.449 646.377 280.945 615.817 264.484 597.698 242.075 598.757 242.19 599.838 242.228 600.935 242.179L636.626 240.599C655.469 239.952 670.221 224.151 669.573 205.307L669.573 205.298C672.638 205.108 675.013 202.517 674.907 199.43 674.802 196.342 672.253 193.92 669.183 193.941L669.182 193.925C672.247 193.736 674.622 191.144 674.516 188.057 674.411 184.97 671.862 182.547 668.792 182.568L668.792 182.552C671.856 182.362 674.232 179.771 674.126 176.684 674.02 173.596 671.471 171.174 668.402 171.195 668.402 171.195 668.138 171.202 668.086 171.206 649.394 172.019 634.81 187.742 635.454 206.48 635.454 206.48 635.725 218.979 623.965 219.383L585.15 220.984C581.792 212.63 579.99 203.792 579.99 194.648 579.99 152.234 604.232 112.159 666.816 103.301 668.042 103.127 669.179 103.994 669.35 105.222L671.006 117.086C675.219 138.147 686.733 149.12 706.734 156.947L753.938 156.947C762.154 156.947 773.138 166.249 779.945 170.849 781.371 171.811 783.366 173.21 785.216 173.21L796.38 173.21C807.169 173.21 816.106 164.609 816.106 153.82L774.106 153.82 771.038 150.751C758.448 138.162 741.602 130.742 723.815 129.95L723.815 129.95 723.815 129.95C723.812 125.755 727.247 122.321 731.444 122.321ZM716.199 463.851C660.505 492.832 590.477 429.977 636.322 399.445 676.621 385.619 706.182 421.012 719.846 461.923 718.647 462.598 717.434 463.249 716.199 463.851Z" fill="#FFC000"/><path d="M650.685 206.571C651.313 206.549 651.805 206.023 651.783 205.394 651.379 193.636 660.617 183.74 672.376 183.336 673.004 183.314 673.496 182.788 673.474 182.159 673.452 181.532 672.926 181.04 672.297 181.061 659.285 181.508 649.062 192.459 649.509 205.472 649.531 206.101 650.057 206.593 650.685 206.571Z" fill="#FFFFFF"/><path d="M661.622 206.196C662.25 206.174 662.742 205.648 662.721 205.019 662.629 202.361 663.578 199.827 665.393 197.883 667.208 195.939 669.672 194.818 672.33 194.727 672.33 194.727 672.33 194.727 672.331 194.727 672.959 194.705 673.451 194.179 673.429 193.55 673.407 192.923 672.881 192.431 672.252 192.452L672.252 192.452C668.985 192.565 665.96 193.941 663.73 196.33 661.5 198.719 660.333 201.832 660.446 205.098 660.468 205.726 660.995 206.217 661.622 206.196Z" fill="#FFFFFF"/><path d="M612.557 528.265C611.975 528.5 611.693 529.164 611.929 529.747 616.341 540.654 611.056 553.117 600.149 557.528 599.566 557.764 599.285 558.427 599.52 559.01 599.756 559.593 600.419 559.874 601.002 559.639 613.073 554.757 618.921 540.964 614.039 528.894 613.803 528.31 613.14 528.029 612.557 528.265Z" fill="#FFFFFF"/><path d="M602.412 532.367C601.829 532.603 601.548 533.266 601.784 533.849 602.781 536.315 602.758 539.021 601.719 541.469 600.681 543.917 598.752 545.816 596.286 546.812 596.286 546.812 596.286 546.812 596.286 546.813 595.703 547.049 595.422 547.712 595.657 548.295 595.893 548.878 596.556 549.159 597.139 548.924L597.14 548.923C600.169 547.697 602.54 545.367 603.815 542.359 605.091 539.35 605.118 536.025 603.893 532.996 603.658 532.413 602.995 532.132 602.412 532.367Z" fill="#FFFFFF"/><path d="M613.902 244.673 602.539 244.673C591.615 244.673 581.344 240.419 573.619 232.694L569.94 229.016C569.399 228.474 569.399 227.596 569.94 227.055 570.482 226.514 571.36 226.514 571.901 227.055L575.579 230.734C582.781 237.935 592.355 241.9 602.538 241.9L613.901 241.9C614.667 241.9 615.288 242.521 615.288 243.287 615.288 244.053 614.668 244.673 613.902 244.673Z" fill="#737373"/><path d="M727.709 513.187C727.689 513.187 727.667 513.186 727.646 513.184 727.233 513.15 726.927 512.789 726.96 512.375 726.971 512.251 727.974 499.814 726.964 491.732 725.604 480.86 721.502 469.829 721.46 469.718 721.315 469.331 721.511 468.898 721.899 468.753 722.285 468.61 722.719 468.803 722.865 469.192 722.906 469.303 727.07 480.494 728.452 491.546 729.482 499.783 728.466 512.373 728.456 512.499 728.424 512.891 728.096 513.187 727.709 513.187Z" fill="#FFFFFF"/><path d="M753.939 468.651C753.555 468.651 753.228 468.358 753.192 467.969 752.171 456.724 747.648 442.877 745.137 436.469 744.986 436.082 745.176 435.647 745.561 435.496 745.946 435.343 746.381 435.535 746.533 435.92 749.073 442.404 753.648 456.421 754.686 467.833 754.724 468.246 754.42 468.611 754.008 468.648 753.984 468.65 753.961 468.651 753.939 468.651Z" fill="#FFFFFF"/><path d="M573.693 185.69C573.279 185.69 572.943 186.026 572.943 186.44 572.943 189.467 570.481 191.93 567.454 191.93 564.427 191.93 561.965 189.467 561.965 186.44 561.965 186.026 561.629 185.69 561.215 185.69 560.801 185.69 560.465 186.026 560.465 186.44 560.465 189.467 558.003 191.93 554.975 191.93 551.948 191.93 549.486 189.467 549.486 186.44 549.486 186.026 549.15 185.69 548.736 185.69 548.322 185.69 547.986 186.026 547.986 186.44 547.986 190.294 551.122 193.43 554.975 193.43 557.703 193.43 560.063 191.856 561.215 189.572 562.366 191.856 564.727 193.43 567.454 193.43 571.308 193.43 574.443 190.294 574.443 186.44 574.443 186.026 574.108 185.69 573.693 185.69Z" fill="#FFFFFF"/><path d="M561.908 210.76C558.053 210.76 554.919 207.626 554.919 203.771 554.919 203.357 555.255 203.021 555.669 203.021 556.083 203.021 556.419 203.357 556.419 203.771 556.419 206.798 558.881 209.26 561.908 209.26 564.935 209.26 567.397 206.798 567.397 203.771 567.397 203.357 567.733 203.021 568.147 203.021 568.561 203.021 568.897 203.357 568.897 203.771 568.898 207.626 565.762 210.76 561.908 210.76Z" fill="#FFFFFF"/><path d="M649.258 93.6008C649.673 93.6008 650.008 93.2647 650.008 92.8508 650.008 92.4368 649.673 92.1008 649.258 92.1008 646.232 92.1008 643.77 89.6385 643.77 86.6115 643.77 83.5845 646.232 81.1223 649.258 81.1223 649.673 81.1223 650.008 80.7862 650.008 80.3723 650.008 79.9583 649.673 79.6223 649.258 79.6223 645.404 79.6223 642.27 82.7572 642.27 86.6115 642.27 89.3385 643.843 91.6995 646.127 92.8508 643.844 94.002 642.27 96.363 642.27 99.09 642.27 102.944 645.405 106.079 649.258 106.079 649.673 106.079 650.008 105.743 650.008 105.329 650.008 104.915 649.673 104.579 649.258 104.579 646.232 104.579 643.77 102.117 643.77 99.09 643.769 96.063 646.232 93.6008 649.258 93.6008Z" fill="#FFFFFF"/><path d="M664.51 99.8408C660.656 99.8408 657.521 96.705 657.521 92.8515 657.521 88.998 660.656 85.8623 664.51 85.8623 664.925 85.8623 665.26 86.1982 665.26 86.6123 665.26 87.0263 664.925 87.3623 664.51 87.3623 661.483 87.3623 659.021 89.8245 659.021 92.8515 659.021 95.8785 661.483 98.3408 664.51 98.3408 664.925 98.3408 665.26 98.6768 665.26 99.0908 665.26 99.5048 664.924 99.8408 664.51 99.8408Z" fill="#FFFFFF"/><path d="M631.926 100.534C628.072 100.534 624.937 97.398 624.937 93.5445 624.937 89.691 628.072 86.5553 631.926 86.5553 632.34 86.5553 632.676 86.8913 632.676 87.3053 632.676 87.7193 632.34 88.0553 631.926 88.0553 628.899 88.0553 626.437 90.5175 626.437 93.5445 626.437 96.5715 628.899 99.0338 631.926 99.0338 632.34 99.0338 632.676 99.3698 632.676 99.7838 632.676 100.198 632.341 100.534 631.926 100.534Z" fill="#FFFFFF"/><path d="M676.295 291.758C675.881 291.758 675.545 292.094 675.545 292.508 675.545 295.535 673.083 297.997 670.056 297.997 667.029 297.997 664.567 295.535 664.567 292.508 664.567 292.094 664.232 291.758 663.817 291.758 663.402 291.758 663.067 292.094 663.067 292.508 663.067 295.535 660.605 297.997 657.578 297.997 654.552 297.997 652.089 295.535 652.089 292.508 652.089 292.094 651.754 291.758 651.339 291.758 650.924 291.758 650.589 292.094 650.589 292.508 650.589 296.362 653.725 299.497 657.578 299.497 660.305 299.497 662.666 297.924 663.817 295.64 664.968 297.924 667.329 299.497 670.056 299.497 673.911 299.497 677.045 296.362 677.045 292.508 677.045 292.094 676.709 291.758 676.295 291.758Z" fill="#FFFFFF"/><path d="M632.62 299.497C628.766 299.497 625.631 296.362 625.631 292.508 625.631 292.094 625.967 291.758 626.381 291.758 626.795 291.758 627.131 292.094 627.131 292.508 627.131 295.535 629.593 297.997 632.62 297.997 635.647 297.997 638.109 295.535 638.109 292.508 638.109 292.094 638.445 291.758 638.859 291.758 639.273 291.758 639.609 292.094 639.609 292.508 639.609 296.362 636.474 299.497 632.62 299.497Z" fill="#FFFFFF"/><path d="M695.013 314.056C691.159 314.056 688.024 310.92 688.024 307.066 688.024 306.652 688.359 306.316 688.774 306.316 689.189 306.316 689.524 306.652 689.524 307.066 689.524 310.094 691.986 312.556 695.013 312.556 698.039 312.556 700.502 310.094 700.502 307.066 700.502 306.652 700.837 306.316 701.252 306.316 701.667 306.316 702.002 306.652 702.002 307.066 702.002 310.92 698.866 314.056 695.013 314.056Z" fill="#FFFFFF"/><path d="M676.295 306.316C675.881 306.316 675.545 306.652 675.545 307.066 675.545 310.093 673.083 312.555 670.056 312.555 667.029 312.555 664.567 310.093 664.567 307.066 664.567 306.652 664.232 306.316 663.817 306.316 663.402 306.316 663.067 306.652 663.067 307.066 663.067 310.093 660.605 312.555 657.578 312.555 654.552 312.555 652.089 310.093 652.089 307.066 652.089 306.652 651.754 306.316 651.339 306.316 650.924 306.316 650.589 306.652 650.589 307.066 650.589 310.92 653.725 314.055 657.578 314.055 660.305 314.055 662.666 312.482 663.817 310.198 664.968 312.482 667.329 314.055 670.056 314.055 673.911 314.055 677.045 310.919 677.045 307.066 677.045 306.652 676.709 306.316 676.295 306.316Z" fill="#FFFFFF"/><path d="M715.117 321.568C714.702 321.568 714.367 321.904 714.367 322.318 714.367 325.345 711.905 327.807 708.878 327.807 705.851 327.807 703.388 325.345 703.388 322.318 703.388 321.904 703.053 321.568 702.638 321.568 702.224 321.568 701.888 321.904 701.888 322.318 701.888 325.345 699.426 327.807 696.4 327.807 693.373 327.807 690.911 325.345 690.911 322.318 690.911 321.904 690.576 321.568 690.161 321.568 689.746 321.568 689.411 321.904 689.411 322.318 689.411 326.172 692.547 329.307 696.4 329.307 699.126 329.307 701.487 327.733 702.638 325.45 703.79 327.733 706.151 329.307 708.878 329.307 712.732 329.307 715.867 326.171 715.867 322.318 715.867 321.904 715.532 321.568 715.117 321.568Z" fill="#FFFFFF"/><path d="M760.178 375.061C756.324 375.061 753.189 371.926 753.189 368.073 753.189 367.658 753.525 367.323 753.939 367.323 754.354 367.323 754.689 367.658 754.689 368.073 754.689 371.099 757.151 373.561 760.178 373.561 763.205 373.561 765.667 371.099 765.667 368.073 765.667 367.658 766.002 367.323 766.417 367.323 766.832 367.323 767.167 367.658 767.167 368.073 767.168 371.926 764.032 375.061 760.178 375.061Z" fill="#FFFFFF"/><path d="M766.418 350.684C766.003 350.684 765.668 351.02 765.668 351.434 765.668 354.461 763.206 356.924 760.179 356.924 757.152 356.924 754.69 354.461 754.69 351.434 754.69 351.02 754.355 350.684 753.94 350.684 753.525 350.684 753.19 351.02 753.19 351.434 753.19 354.461 750.728 356.924 747.701 356.924 744.674 356.924 742.212 354.461 742.212 351.434 742.212 351.02 741.877 350.684 741.462 350.684 741.047 350.684 740.712 351.02 740.712 351.434 740.712 355.288 743.848 358.424 747.701 358.424 750.428 358.424 752.789 356.85 753.94 354.566 755.091 356.85 757.452 358.424 760.179 358.424 764.033 358.424 767.168 355.288 767.168 351.434 767.168 351.02 766.832 350.684 766.418 350.684Z" fill="#FFFFFF"/><path d="M656.884 468.538C656.469 468.538 656.134 468.873 656.134 469.288 656.134 472.314 653.672 474.776 650.645 474.776 647.619 474.776 645.156 472.314 645.156 469.288 645.156 468.873 644.821 468.538 644.406 468.538 643.991 468.538 643.656 468.873 643.656 469.288 643.656 472.314 641.194 474.776 638.167 474.776 635.14 474.776 632.678 472.314 632.678 469.288 632.678 468.873 632.342 468.538 631.928 468.538 631.514 468.538 631.178 468.873 631.178 469.288 631.178 473.141 634.313 476.276 638.167 476.276 640.894 476.276 643.255 474.703 644.406 472.419 645.557 474.702 647.919 476.276 650.645 476.276 654.499 476.276 657.634 473.141 657.634 469.288 657.634 468.873 657.298 468.538 656.884 468.538Z" fill="#FFFFFF"/><path d="M613.208 476.276C609.354 476.276 606.219 473.141 606.219 469.288 606.219 468.873 606.555 468.538 606.969 468.538 607.383 468.538 607.719 468.873 607.719 469.288 607.719 472.314 610.182 474.776 613.208 474.776 616.235 474.776 618.698 472.314 618.698 469.288 618.698 468.873 619.034 468.538 619.448 468.538 619.862 468.538 620.198 468.873 620.198 469.288 620.198 473.141 617.063 476.276 613.208 476.276Z" fill="#FFFFFF"/><path d="M613.208 461.025C609.354 461.025 606.219 457.889 606.219 454.036 606.219 453.621 606.555 453.286 606.969 453.286 607.383 453.286 607.719 453.621 607.719 454.036 607.719 457.063 610.182 459.525 613.208 459.525 616.235 459.525 618.698 457.063 618.698 454.036 618.698 453.621 619.034 453.286 619.448 453.286 619.862 453.286 620.198 453.621 620.198 454.036 620.198 457.89 617.063 461.025 613.208 461.025Z" fill="#FFFFFF"/><path d="M675.602 490.834C671.747 490.834 668.613 487.699 668.613 483.846 668.613 483.431 668.948 483.096 669.363 483.096 669.777 483.096 670.113 483.431 670.113 483.846 670.113 486.872 672.575 489.334 675.602 489.334 678.629 489.334 681.091 486.872 681.091 483.846 681.091 483.431 681.426 483.096 681.841 483.096 682.256 483.096 682.591 483.431 682.591 483.846 682.591 487.699 679.455 490.834 675.602 490.834Z" fill="#FFFFFF"/><path d="M650.644 490.834C646.791 490.834 643.656 487.699 643.656 483.846 643.656 483.431 643.991 483.096 644.406 483.096 644.82 483.096 645.156 483.431 645.156 483.846 645.156 486.872 647.618 489.334 650.644 489.334 653.671 489.334 656.133 486.872 656.133 483.846 656.133 483.431 656.469 483.096 656.883 483.096 657.298 483.096 657.633 483.431 657.633 483.846 657.634 487.699 654.498 490.834 650.644 490.834Z" fill="#FFFFFF"/><path d="M751.167 312.612C751.167 316.441 748.063 319.544 744.234 319.544 740.406 319.544 737.302 316.441 737.302 312.612 737.302 308.783 740.406 305.68 744.234 305.68 748.063 305.68 751.167 308.783 751.167 312.612Z" fill="#505050"/><path d="M758.099 311.053C758.099 312.488 756.935 313.652 755.499 313.652 754.064 313.652 752.9 312.488 752.9 311.053 752.9 309.617 754.064 308.453 755.499 308.453 756.935 308.453 758.099 309.617 758.099 311.053Z" fill="#505050"/><path d="M592.758 192.16C592.758 193.595 591.594 194.759 590.158 194.759 588.722 194.759 587.558 193.595 587.558 192.16 587.558 190.724 588.722 189.56 590.158 189.56 591.594 189.56 592.758 190.724 592.758 192.16Z" fill="#505050"/><path d="M606.276 203.771C606.276 207.217 603.483 210.01 600.037 210.01 596.591 210.01 593.798 207.217 593.798 203.771 593.798 200.325 596.591 197.532 600.037 197.532 603.483 197.532 606.276 200.325 606.276 203.771Z" fill="#505050"/><path d="M709.259 126.664C709.259 128.109 708.087 129.28 706.642 129.28 705.197 129.28 704.025 128.109 704.025 126.664 704.025 125.219 705.197 124.047 706.642 124.047 708.087 124.047 709.259 125.219 709.259 126.664Z" fill="#737373"/><path d="M699.866 138.069C699.866 139.514 698.694 140.686 697.249 140.686 695.804 140.686 694.632 139.514 694.632 138.069 694.632 136.624 695.804 135.452 697.249 135.452 698.694 135.452 699.866 136.624 699.866 138.069Z" fill="#737373"/><path d="M719.357 142.725C719.357 146.193 716.546 149.005 713.078 149.005 709.61 149.005 706.798 146.193 706.798 142.725 706.798 139.257 709.61 136.445 713.078 136.445 716.546 136.445 719.357 139.257 719.357 142.725Z" fill="#737373"/><path d="M796.922 411.054C796.922 414.883 793.818 417.986 789.99 417.986 786.161 417.986 783.057 414.883 783.057 411.054 783.057 407.225 786.161 404.122 789.99 404.122 793.818 404.122 796.922 407.225 796.922 411.054Z" fill="#505050"/><path d="M805.239 398.749C805.239 400.184 804.075 401.348 802.64 401.348 801.204 401.348 800.04 400.184 800.04 398.749 800.04 397.313 801.204 396.149 802.64 396.149 804.075 396.149 805.239 397.313 805.239 398.749Z" fill="#505050"/><path d="M796.227 386.79C796.227 390.236 793.434 393.029 789.988 393.029 786.542 393.029 783.749 390.236 783.749 386.79 783.749 383.344 786.542 380.551 789.988 380.551 793.434 380.551 796.227 383.344 796.227 386.79Z" fill="#505050"/><path d="M711.43 90.8625 701.783 80.2035 699.372 77.541C698.673 76.8037 697.994 76.0373 697.242 75.3443 695.771 73.926 694.194 72.5963 692.497 71.424 689.13 69.0352 685.351 67.1805 681.353 65.8935 679.348 65.2718 677.292 64.7873 675.2 64.4467 674.151 64.3132 673.099 64.1535 672.037 64.092L671.24 64.026 670.355 63.9788 668.56 63.8895 654.201 63.174 647.011 62.8132C644.388 62.6872 641.788 62.3242 639.245 61.7603 636.703 61.194 634.218 60.4155 631.825 59.4398 629.437 58.449 627.143 57.261 624.972 55.896 622.802 54.531 620.754 52.9912 618.857 51.294 617.925 50.427 617.004 49.5547 616.144 48.6225 615.269 47.706 614.516 46.8382 613.697 45.9435 612.857 45.027 612.918 43.6028 613.835 42.7627 614.693 41.976 615.996 41.9805 616.848 42.7365L616.878 42.7627C617.76 43.551 618.669 44.406 619.528 45.1388 620.372 45.8895 621.266 46.5773 622.158 47.2583 623.975 48.5827 625.898 49.7437 627.891 50.7353 629.885 51.726 631.954 52.5457 634.067 53.1848 636.185 53.8088 638.345 54.2513 640.515 54.51 642.687 54.7673 644.868 54.8512 647.033 54.7373L654.201 54.3825 668.56 53.667 670.355 53.5777 671.264 53.5357 672.262 53.5147C673.596 53.463 674.927 53.5192 676.266 53.5612 678.935 53.7195 681.601 54.066 684.24 54.6045 689.505 55.7227 694.649 57.6233 699.4 60.3105 701.789 61.632 704.062 63.1733 706.222 64.8682 707.318 65.6992 708.339 66.6195 709.377 67.527L712.044 69.9405 722.703 79.5877C725.972 82.5457 726.223 87.594 723.265 90.8625 720.307 94.131 715.259 94.3822 711.99 91.4243 711.796 91.2473 711.604 91.0537 711.43 90.8625Z" fill="#D2D2D2"/><path d="M758.462 96.3105C749.948 96.3105 741.747 93.1028 735.494 87.3255 726.208 78.747 714.031 73.983 701.389 73.983L686.122 74.5957 680.979 69.9405 678.311 67.527C677.273 66.6195 676.252 65.6992 675.156 64.8682 672.996 63.174 670.723 61.632 668.334 60.3105 663.583 57.6233 658.44 55.7227 653.174 54.6045 650.535 54.0667 647.87 53.7195 645.2 53.5612 643.862 53.5192 642.53 53.463 641.196 53.5147L637.494 53.6677 623.135 54.3833 615.968 54.738C613.803 54.852 611.621 54.7673 609.45 54.5107 607.28 54.2513 605.12 53.8088 603.002 53.1848 600.889 52.5465 598.82 51.7268 596.826 50.7353 594.832 49.7437 592.911 48.5827 591.093 47.2583 590.2 46.5773 589.307 45.8895 588.463 45.1388 587.604 44.406 586.694 43.551 585.813 42.7627L585.784 42.7365C584.932 41.9805 583.629 41.976 582.771 42.7627 581.854 43.6028 581.792 45.027 582.633 45.9435 583.452 46.8382 584.204 47.706 585.081 48.6225 585.94 49.5547 586.861 50.427 587.794 51.294 589.69 52.9912 591.738 54.531 593.909 55.896 596.079 57.261 598.373 58.449 600.761 59.4398 603.155 60.4155 605.64 61.1933 608.182 61.7603 610.724 62.3242 613.325 62.688 615.948 62.8132L623.138 63.174 637.496 63.8895 640.974 64.092C642.036 64.1535 643.087 64.3125 644.136 64.4467 646.228 64.788 648.284 65.2718 650.289 65.8935 654.287 67.1805 658.066 69.0352 661.433 71.424 663.131 72.5963 664.707 73.926 666.179 75.3443 666.93 76.0373 667.61 76.803 668.309 77.541L670.719 80.2035 680.366 90.8625C680.54 91.0537 683.515 93.9885 684.334 94.8315 693.021 103.777 705.169 109.339 718.624 109.339 721.119 109.339 723.569 109.147 725.959 108.777 733.002 107.687 740.188 107.741 747.121 109.393 749.249 109.9 751.489 110.118 753.798 110.003 762.711 109.558 770.398 104.044 773.993 96.3105L758.462 96.3105Z" fill="#737373"/><path d="M695.706 85.9755C695.487 85.9755 695.271 85.8802 695.122 85.6965L686.141 74.571C685.88 74.2485 685.932 73.7767 686.253 73.5165 686.576 73.2563 687.047 73.3073 687.308 73.629L696.289 84.7545C696.549 85.077 696.498 85.5488 696.177 85.809 696.039 85.9207 695.871 85.9755 695.706 85.9755Z" fill="#FFFFFF"/><path d="M792.816 100.647C792.816 102.959 790.941 104.833 788.629 104.833 786.317 104.833 784.443 102.959 784.443 100.647 784.443 98.3349 786.317 96.4605 788.629 96.4605 790.941 96.4605 792.816 98.3349 792.816 100.647Z" fill="#505050"/><path d="M809.4 100.647C809.4 102.959 807.525 104.833 805.213 104.833 802.901 104.833 801.027 102.959 801.027 100.647 801.027 98.3349 802.901 96.4605 805.213 96.4605 807.525 96.4605 809.4 98.3349 809.4 100.647Z" fill="#505050"/><path d="M733.581 94.3672C733.581 96.426 726.997 97.53 720.224 97.5435 717.299 97.5495 711.2 96.1748 710.499 93.3997 709.889 90.9802 712.374 87.6495 715.475 87.0375 716.781 86.7795 718.18 86.6925 719.625 86.6925 727.333 86.6925 733.581 90.129 733.581 94.3672Z" fill="#FFFFFF"/><path d="M720.33 97.5397C720.77 96.5723 721.022 95.4997 721.022 94.3672 721.022 90.9037 718.727 87.9788 715.575 87.0232 709.845 87.978 705.672 90.9037 705.672 94.3672 705.672 96.558 713.126 97.614 720.33 97.5397Z" fill="#505050"/><path d="M706.9 112.763C696.912 108.555 686.409 105.466 675.665 103.847 670.296 103.024 664.875 102.551 659.44 102.497 656.717 102.521 654.001 102.451 651.266 102.699L649.218 102.833C648.877 102.858 648.536 102.872 648.195 102.907L647.172 103.039 643.086 103.571C637.654 104.479 632.309 106.009 627.253 107.941 622.184 109.855 617.414 112.058 612.606 113.703 607.805 115.372 602.887 116.423 597.832 116.783 596.58 116.952 595.3 116.909 594.032 116.962L592.125 117.014C591.489 117.037 590.853 116.987 590.216 116.978 587.664 116.94 585.136 116.677 582.617 116.368 577.593 115.643 572.669 114.347 567.907 112.472 563.136 110.622 558.516 108.251 553.875 105.782 549.234 103.31 544.546 100.764 539.675 98.5132 534.812 96.2513 529.763 94.3193 524.6 92.79 514.243 89.7825 503.504 88.494 492.824 88.398 482.131 88.3432 471.452 89.5748 461.073 91.9958 460.327 92.169 459.863 92.9137 460.035 93.66 460.206 94.3972 460.938 94.8585 461.675 94.7025 471.897 92.5208 482.355 91.5188 492.772 91.7678 503.184 92.0573 513.575 93.5145 523.451 96.5865 528.381 98.1503 533.182 100.089 537.847 102.367 542.52 104.633 547.068 107.212 551.693 109.79 556.32 112.363 561.06 114.919 566.098 116.985 571.121 119.074 576.439 120.589 581.85 121.472 584.559 121.858 587.284 122.189 590.011 122.284 590.693 122.307 591.374 122.37 592.057 122.36L594.108 122.347C595.476 122.317 596.844 122.381 598.215 122.229 603.698 121.946 609.216 120.872 614.416 119.169 619.631 117.488 624.502 115.342 629.343 113.626 634.181 111.883 639.055 110.597 644.055 109.852L647.828 109.435 648.771 109.329C649.086 109.304 649.406 109.298 649.722 109.28L651.627 109.193C654.158 109.005 656.724 109.126 659.276 109.148 664.395 109.294 669.508 109.838 674.555 110.71 684.663 112.428 694.514 115.527 703.899 119.689L703.903 119.692C705.809 120.537 708.039 119.678 708.884 117.772 709.729 115.866 708.87 113.636 706.964 112.791 706.949 112.784 706.916 112.769 706.9 112.763Z" fill="#505050"/></g></svg>