<svg width="102" height="102" xmlns="http://www.w3.org/2000/svg" xmlns:xlink="http://www.w3.org/1999/xlink" xml:space="preserve" overflow="hidden"><g transform="translate(-400 -120)"><path d="M478.013 173.51C481.37 176.807 479.52 184.127 473.881 189.859 468.242 195.59 460.949 197.563 457.592 194.265 456.072 192.771 455.621 190.452 456.106 187.829 456.547 185.448 452.154 178.811 451.222 176.577 449.971 173.581 449.102 170.348 451.541 167.91 453.805 165.645 457.187 166.247 460.206 167.446 462.457 168.339 469.173 172.615 471.548 172.135 474.164 171.605 476.493 172.016 478.013 173.51Z" fill="#D0D0D0"/><path d="M466.012 181.081C466.244 181.262 466.481 181.438 466.726 181.607 467.409 182.066 468.123 182.494 468.963 182.796 469.881 183.127 470.358 184.139 470.028 185.058 469.697 185.976 468.685 186.453 467.766 186.123 467.252 185.937 466.873 185.53 466.7 185.053 466.4 184.212 465.974 183.497 465.517 182.813 465.349 182.568 465.173 182.332 464.994 182.099 461.991 185.34 460.732 188.987 462.188 190.444 463.724 191.979 467.693 190.499 471.054 187.138 474.415 183.777 475.895 179.808 474.359 178.273 472.902 176.815 469.253 178.076 466.012 181.081Z" fill="#FFFFFF"/><path d="M444.993 187.722C444.512 185.347 448.788 178.632 449.681 176.381 450.463 174.413 450.808 172.201 450.411 170.365 451.353 170.379 452.298 170.028 453.017 169.31 454.427 167.899 454.427 165.612 453.017 164.201 451.606 162.79 449.318 162.79 447.908 164.201 447.234 164.875 446.885 165.749 446.855 166.632 444.956 166.156 442.613 166.536 440.55 167.396 438.316 168.329 431.68 172.722 429.298 172.281 426.675 171.796 424.356 172.247 422.862 173.767 419.564 177.124 421.537 184.417 427.268 190.056 433 195.695 440.32 197.545 443.617 194.188 445.112 192.668 445.523 190.339 444.993 187.722ZM451.484 165.734C452.048 166.298 452.048 167.213 451.484 167.777 450.92 168.342 450.005 168.342 449.44 167.777 448.876 167.213 448.876 166.298 449.44 165.734 450.005 165.169 450.92 165.169 451.484 165.734Z" fill="#FFC000"/><path d="M436.046 182.187C435.865 182.419 435.689 182.656 435.52 182.901 435.075 183.562 434.66 184.253 434.36 185.059 434.031 185.941 433.109 186.495 432.201 186.244 431.198 185.967 430.659 184.903 431.005 183.941 431.19 183.426 431.597 183.048 432.074 182.875 432.915 182.575 433.63 182.149 434.314 181.691 434.559 181.524 434.796 181.348 435.028 181.169 431.788 178.165 428.141 176.906 426.684 178.363 425.149 179.898 426.629 183.868 429.99 187.228 433.351 190.589 437.32 192.069 438.855 190.534 440.312 189.077 439.051 185.428 436.046 182.187Z" fill="#FFFFFF"/><path d="M450.362 165.906C450.245 165.906 450.15 165.81 450.15 165.693L450.15 161.868C450.15 161.751 450.245 161.656 450.362 161.656 450.48 161.656 450.575 161.751 450.575 161.868L450.575 165.693C450.575 165.81 450.48 165.906 450.362 165.906Z" fill="#FFFFFF"/><path d="M480.713 164.234C480.647 164.137 480.515 164.112 480.418 164.178 475.554 167.485 470.998 168.702 468.527 167.354 467.881 167.002 467.514 166.611 467.405 166.157 467.223 165.402 467.786 164.575 468.284 163.845 468.716 163.21 469.09 162.662 468.886 162.227 468.752 161.942 468.409 161.782 467.808 161.725 463.701 161.333 455.87 161.474 451.808 161.604 451.801 161.604 451.8 161.602 451.807 161.6 455 160.526 462.848 157.97 465.579 157.85 469.399 157.681 471.994 158.593 474.005 160.804 474.084 160.891 474.219 160.897 474.305 160.818 474.392 160.74 474.398 160.605 474.32 160.518 472.244 158.236 469.46 157.253 465.56 157.425 463.211 157.529 457.376 159.321 453.633 160.544 453.624 160.547 453.623 160.546 453.632 160.541 455.222 159.576 457.063 158.119 458.305 156.065 460.705 152.094 460.883 148.964 458.779 147.693 457.792 147.095 456.634 147.135 455.428 147.805 454.125 148.529 452.833 149.941 451.587 152.002 450.382 153.995 449.984 156.256 449.905 158.115 449.905 158.122 449.903 158.123 449.901 158.116 449.239 155.631 447.944 152.378 445.434 149.867 443.194 147.627 441.102 146.231 439.214 145.718 437.483 145.248 436.007 145.558 434.948 146.617 432.683 148.882 433.899 152.802 438.199 157.103 442.871 161.775 450.28 162.078 450.355 162.081 450.357 162.081 450.36 162.081 450.362 162.081 450.364 162.081 450.365 162.08 450.367 162.08 450.368 162.08 450.369 162.081 450.371 162.08 453.631 161.949 463.113 161.704 467.767 162.148 468.324 162.201 468.466 162.333 468.501 162.407 468.602 162.623 468.261 163.123 467.932 163.606 467.412 164.369 466.765 165.318 466.991 166.257 467.13 166.834 467.566 167.315 468.323 167.728 469.043 168.12 469.923 168.311 470.925 168.311 473.56 168.311 477.038 166.99 480.656 164.529 480.754 164.463 480.779 164.331 480.713 164.234ZM451.951 152.222C453.142 150.253 454.416 148.854 455.635 148.176 456.206 147.859 456.762 147.7 457.286 147.7 457.738 147.7 458.167 147.818 458.56 148.056 460.435 149.19 460.204 152.102 457.942 155.845 455.751 159.469 451.615 161.184 450.553 161.576 450.552 161.576 450.551 161.576 450.551 161.574 450.524 161.3 450.469 160.838 450.366 160.238 450.216 158.317 450.275 154.995 451.951 152.222ZM435.249 146.917C435.903 146.263 436.743 145.931 437.722 145.931 438.156 145.931 438.618 145.997 439.103 146.129 440.892 146.615 442.977 148.012 445.134 150.167 448.374 153.408 449.54 157.928 449.945 160.294 449.992 160.895 450.059 161.362 450.105 161.637 450.105 161.638 450.104 161.639 450.102 161.639 448.752 161.538 442.557 160.859 438.5 156.802 434.388 152.69 433.172 148.994 435.249 146.917Z" fill="#FFC000"/></g></svg>