<svg width="480" height="480" xmlns="http://www.w3.org/2000/svg" xmlns:xlink="http://www.w3.org/1999/xlink" xml:space="preserve" overflow="hidden"><g transform="translate(-277 -20)"><path d="M378.009 290.5 408 290.5 408 291.5 378.009 291.5Z" fill="#737373"/><path d="M378.009 230.5 408 230.5 408 231.5 378.009 231.5Z" fill="#737373"/><path d="M378.009 200.5 408 200.5 408 201.5 378.009 201.5Z" fill="#737373"/><path d="M378 260.615 407.991 260.615 407.991 261.615 378 261.615Z" fill="#737373"/><path d="M528.009 320.5 588 320.5 588 321.5 528.009 321.5Z" fill="#737373"/><path d="M528.009 290.5 588.009 290.5 588.009 291.5 528.009 291.5Z" fill="#737373"/><path d="M528.009 230.5 588.009 230.5 588.009 231.5 528.009 231.5Z" fill="#737373"/><path d="M528.009 200.5 588.009 200.5 588.009 201.5 528.009 201.5Z" fill="#737373"/><path d="M528 260.615 588 260.615 588 261.615 528 261.615Z" fill="#737373"/><path d="M619 320.5 649 320.5 649 321.5 619 321.5Z" fill="#737373"/><path d="M619 290.5 649.009 290.5 649.009 291.5 619 291.5Z" fill="#737373"/><path d="M619 230.5 649.009 230.5 649.009 231.5 619 231.5Z" fill="#737373"/><path d="M618.991 260.615 649 260.615 649 261.615 618.991 261.615Z" fill="#737373"/><path d="M438 320.5 468 320.5 468 321.5 438 321.5Z" fill="#737373"/><path d="M438 290.5 468 290.5 468 291.5 438 291.5Z" fill="#737373"/><path d="M438 230.5 498 230.5 498 231.5 438 231.5Z" fill="#737373"/><path d="M438 260.615 498 260.615 498 261.615 438 261.615Z" fill="#737373"/><path d="M426 200.465 425.953 312.188C425.953 312.198 425.94 312.201 425.935 312.192 422.688 305.594 415.932 301.035 408.09 301 397.545 300.953 388.585 309.384 388.028 319.914 387.419 331.453 396.594 341 408 341 419.046 341 428 332.046 428 321 428 320.663 427.966 320.335 427.95 320.003L427.989 229.711 516 172.648 516 282.284C516 282.294 515.987 282.297 515.982 282.288 512.76 275.65 505.994 271.05 498.131 271 487.571 270.932 478.586 279.368 478.029 289.914 477.419 301.453 486.594 311 498 311 508.708 311 517.425 302.578 517.95 292L518 292 518 139.131 426 200.465Z" fill="#FFC000"/><path d="M617.709 181.002C606.687 181.159 598 190.52 598 201.543L598 306 600 306 600 209.715C600 209.705 600.013 209.702 600.018 209.711 603.41 216.699 610.728 221.428 619.119 220.969 629.011 220.429 637.16 212.494 637.936 202.617 638.869 190.744 629.425 180.836 617.709 181.002Z" fill="#FFC000"/><path d="M654 201C654 203.761 651.761 206 649 206 646.239 206 644 203.761 644 201 644 198.239 646.239 196 649 196 651.761 196 654 198.239 654 201Z" fill="#FFC000"/></g></svg>